<svg xmlns="http://www.w3.org/2000/svg"  viewBox="0 0 351.289 304.751"><defs><style>.a{fill:#ffe422;opacity:0.2;}.b{fill:#ffe21b;}.c{fill:#24387d;}.d{fill:#fff;}.e{fill:#d63031;}.f{fill:#ff633e;}.g{fill:#00b894;}.h{fill:#25397e;}</style></defs><g transform="translate(0 0)"><circle class="a" cx="127.232" cy="127.232" r="127.232" transform="translate(49.446 50.288)"/><g transform="translate(160.295 66.917)"><g transform="translate(7.04 10.36)"><path class="b" d="M794.111,714.936l74.4,21.334a10.051,10.051,0,0,0,12.366-6.972l48.6-169.513c1.549-5.363-5.87-19.9-12.574-21.9L848.311,526a10.052,10.052,0,0,0-12.366,6.972l-48.6,169.513A10.019,10.019,0,0,0,794.111,714.936Z" transform="translate(-786.376 -525.005)"/><path class="c" d="M869.891,735.825a9.5,9.5,0,0,1-2.86-.417l-74.4-21.334a10.365,10.365,0,0,1-6.287-5.065,10.724,10.724,0,0,1-.864-8.135l48.6-169.513a10.677,10.677,0,0,1,13.081-7.39l68.592,11.889h.03c3.188.953,6.823,4.678,9.743,9.982,2.741,5.006,4.023,9.982,3.248,12.664l-48.6,169.513A10.808,10.808,0,0,1,869.891,735.825Zm-76.935-22.884,74.4,21.334a9.456,9.456,0,0,0,11.621-6.555l48.6-169.513c1.49-5.125-5.87-19.249-12.127-21.156l-68.592-11.889h-.03a9.456,9.456,0,0,0-11.621,6.555l-48.6,169.513a9.484,9.484,0,0,0,.775,7.211,9.235,9.235,0,0,0,5.572,4.5Z" transform="translate(-785.043 -523.577)"/></g><g transform="translate(0 0)"><path class="d" d="M770.1,677l74.4,21.334a9.958,9.958,0,0,0,12.306-6.823l47.943-167.189a9.958,9.958,0,0,0-6.823-12.306l-74.4-21.334a9.958,9.958,0,0,0-12.306,6.823L763.278,664.7A9.935,9.935,0,0,0,770.1,677Z" transform="translate(-762.449 -489.851)"/><path class="c" d="M846.213,698.127a9.5,9.5,0,0,1-2.86-.417l-74.4-21.334a10.369,10.369,0,0,1-7.121-12.842l47.943-167.189a10.392,10.392,0,0,1,12.872-7.121l74.4,21.334a10.416,10.416,0,0,1,7.121,12.872L856.195,690.589A10.423,10.423,0,0,1,846.213,698.127ZM819.753,489.7a9.564,9.564,0,0,0-9.148,6.883L762.663,663.772a9.467,9.467,0,0,0,6.5,11.74h0l74.4,21.334a9.488,9.488,0,0,0,11.74-6.525l47.943-167.189a9.488,9.488,0,0,0-6.526-11.74l-74.343-21.334A9.924,9.924,0,0,0,819.753,489.7Z" transform="translate(-761.416 -488.808)"/></g><g transform="translate(36.624 68.03)"><g transform="translate(18.98)"><path class="b" d="M992.977,744.438l-41.119-11.889a2.464,2.464,0,0,1-1.669-3.009l2.473-8.581a2.464,2.464,0,0,1,3.009-1.669l41.119,11.889a2.464,2.464,0,0,1,1.669,3.009l-2.473,8.581A2.451,2.451,0,0,1,992.977,744.438Z" transform="translate(-949.483 -718.581)"/><path class="c" d="M992.179,743.665a2.822,2.822,0,0,1-.834-.119h0l-41.119-11.889a3.1,3.1,0,0,1-2.086-3.754l2.473-8.581a3.073,3.073,0,0,1,3.754-2.086l41.119,11.889a3.1,3.1,0,0,1,2.086,3.754L995.1,741.46a2.942,2.942,0,0,1-1.46,1.818A2.821,2.821,0,0,1,992.179,743.665Zm-.477-1.251a1.921,1.921,0,0,0,1.4-.179,1.81,1.81,0,0,0,.864-1.073l2.473-8.581a1.87,1.87,0,0,0-1.251-2.265L954.07,718.427a1.869,1.869,0,0,0-2.265,1.251l-2.473,8.581a1.869,1.869,0,0,0,1.251,2.265Z" transform="translate(-948.03 -717.123)"/></g><g transform="translate(12.395 21.394)"><path class="e" d="M970.877,816.237l-41.119-11.889a2.464,2.464,0,0,1-1.669-3.009l2.473-8.581a2.464,2.464,0,0,1,3.009-1.669l41.119,11.889a2.464,2.464,0,0,1,1.669,3.009l-2.473,8.581A2.451,2.451,0,0,1,970.877,816.237Z" transform="translate(-927.383 -790.381)"/><path class="c" d="M970.079,815.465a2.693,2.693,0,0,1-.834-.119h0l-41.119-11.889a3.1,3.1,0,0,1-2.086-3.754l2.473-8.581a3.073,3.073,0,0,1,3.754-2.086l41.119,11.889a3.1,3.1,0,0,1,2.086,3.754L973,813.26A3,3,0,0,1,970.079,815.465Zm-.477-1.251a1.856,1.856,0,0,0,2.265-1.251l2.473-8.581a1.87,1.87,0,0,0-1.251-2.265l-41.119-11.889a1.87,1.87,0,0,0-2.265,1.251l-2.473,8.581a1.87,1.87,0,0,0,1.252,2.265Z" transform="translate(-925.93 -788.923)"/></g><g transform="translate(6.198 42.907)"><path class="f" d="M949.977,888.337l-41.119-11.889a2.464,2.464,0,0,1-1.669-3.009l2.473-8.581a2.464,2.464,0,0,1,3.009-1.669l41.119,11.889a2.464,2.464,0,0,1,1.669,3.009l-2.473,8.581A2.392,2.392,0,0,1,949.977,888.337Z" transform="translate(-906.513 -862.51)"/><path class="c" d="M949.309,887.665a2.753,2.753,0,0,1-.864-.119l-41.119-11.889a3.1,3.1,0,0,1-2.086-3.754l2.473-8.581a3.073,3.073,0,0,1,3.754-2.086l41.119,11.889a3.1,3.1,0,0,1,2.086,3.754L952.2,885.46a2.916,2.916,0,0,1-1.43,1.818A3.238,3.238,0,0,1,949.309,887.665Zm-38.676-25.357a1.877,1.877,0,0,0-1.788,1.341l-2.473,8.581a1.869,1.869,0,0,0,1.251,2.265l41.119,11.889a1.762,1.762,0,0,0,1.4-.149,1.893,1.893,0,0,0,.864-1.1l2.473-8.581a1.87,1.87,0,0,0-1.251-2.265L911.11,862.4A1.236,1.236,0,0,0,910.633,862.308Z" transform="translate(-905.13 -861.123)"/></g><g transform="translate(0 64.391)"><path class="g" d="M929.177,960.537l-41.119-11.889a2.464,2.464,0,0,1-1.669-3.009l2.473-8.581a2.464,2.464,0,0,1,3.009-1.669l41.119,11.889a2.464,2.464,0,0,1,1.669,3.009l-2.473,8.581A2.465,2.465,0,0,1,929.177,960.537Z" transform="translate(-885.713 -934.681)"/><path class="c" d="M928.45,959.765a2.51,2.51,0,0,1-.8-.119h0l-41.119-11.889A3.1,3.1,0,0,1,884.44,944l2.473-8.581a3.073,3.073,0,0,1,3.754-2.086l41.119,11.889a3.1,3.1,0,0,1,2.086,3.754L931.4,957.56A3.11,3.11,0,0,1,928.45,959.765Zm-.477-1.251a1.869,1.869,0,0,0,2.265-1.251l2.473-8.581a1.87,1.87,0,0,0-1.251-2.265L890.34,934.527a1.869,1.869,0,0,0-2.265,1.251L885.6,944.36a1.87,1.87,0,0,0,1.251,2.265Z" transform="translate(-884.33 -933.222)"/></g></g><path class="h" d="M1073.431,554.641a2.754,2.754,0,0,1-.864-.119l-27.2-7.807a3.283,3.283,0,0,1,1.788-6.317h0l27.2,7.807a3.28,3.28,0,0,1-.924,6.436Zm-27.175-13.468a2.4,2.4,0,0,0-2.324,1.728,2.446,2.446,0,0,0,1.669,2.98l27.2,7.807a2.4,2.4,0,0,0,1.281-4.618l-27.2-7.807A1.452,1.452,0,0,0,1046.256,541.173Z" transform="translate(-959.076 -524.936)"/><path class="h" d="M1018.327,537.053a3.427,3.427,0,1,1,3.427-3.427A3.446,3.446,0,0,1,1018.327,537.053Zm0-5.959a2.533,2.533,0,1,0,2.533,2.533A2.531,2.531,0,0,0,1018.327,531.094Z" transform="translate(-939.37 -517.867)"/></g><g transform="translate(160.647 60.27)"><ellipse class="d" cx="4.767" cy="4.589" rx="4.767" ry="4.589" transform="translate(0.447 0.447)"/><path class="h" d="M767.814,476.571a5.039,5.039,0,1,1,5.214-5.036A5.146,5.146,0,0,1,767.814,476.571Zm0-9.177a4.145,4.145,0,1,0,4.321,4.142A4.231,4.231,0,0,0,767.814,467.394Z" transform="translate(-762.6 -466.5)"/></g><ellipse class="c" cx="3.307" cy="3.158" rx="3.307" ry="3.158" transform="translate(316.842 159.254)"/><rect class="h" width="0.894" height="31.912" transform="translate(155.538 0.113) rotate(-7.244)"/><rect class="h" width="19.606" height="0.894" transform="translate(257.264 42.831) rotate(-68.345)"/><rect class="h" width="0.894" height="19.755" transform="translate(34.5 58.871) rotate(-55.689)"/><rect class="h" width="30.542" height="0.894" transform="translate(322.461 130.784) rotate(-21.027)"/><rect class="h" width="33.819" height="0.894" transform="translate(0 179.172) rotate(-4.5)"/><rect class="h" width="0.894" height="43.592" transform="translate(303.022 208.809) rotate(-65.221)"/><rect class="h" width="0.894" height="18.027" transform="translate(38.559 212.18) rotate(-13.762)"/><ellipse class="c" cx="2.98" cy="2.86" rx="2.98" ry="2.86" transform="translate(135.32 296.676)"/><g transform="translate(282.039 231.809)"><ellipse class="e" cx="7.837" cy="7.539" rx="7.837" ry="7.539" transform="translate(0.447 0.447)"/><path class="c" d="M1178.284,1058.171a7.991,7.991,0,1,1,8.284-7.985A8.149,8.149,0,0,1,1178.284,1058.171Zm0-15.077a7.1,7.1,0,1,0,7.39,7.092A7.253,7.253,0,0,0,1178.284,1043.094Z" transform="translate(-1170 -1042.2)"/></g><g transform="translate(19.084 111.967)"><path class="c" d="M287.5,646.972l11.5-3.516L310.443,640l6.049,2.205-4.887,13.5-4.916,13.528-6.049-2.175-6.555-10.071Z" transform="translate(-287.5 -640)"/><g transform="translate(6.049 2.205)"><path class="f" d="M322.506,675.057,310.2,656.225l21.513-6.525Z" transform="translate(-309.485 -649.015)"/><path class="c" d="M309.2,654.879l10.339-3.129,3.814-1.162,5.989-1.818-4.291,11.859-4.291,11.859-3.427-5.244-2.175-3.337-5.959-9.028m-1.4-.507,6.555,10.012,2.175,3.337,4.41,6.734,4.916-13.528,4.916-13.528-7.717,2.324-3.814,1.162L307.8,654.372Z" transform="translate(-307.8 -647.4)"/></g></g><g transform="translate(87.338 45.166)"><path class="h" d="M635.585,552.455,610.764,525.22a5.607,5.607,0,0,0-7.926-.358l-7.33,6.674a1.073,1.073,0,0,1,.119.149l-.3-.328-7.151,6.019-17.431-17.4-.149.119-13.975-15.613s6.525-6.913,6.525-7.151l6.615-5.661a5.631,5.631,0,0,0,.477-8.075l-25.059-27.026a5.606,5.606,0,0,0-7.926-.3l-7.27,6.734s3.188,3.4,7.568,8.075l-7.628-7.985c-6.049,7.717-7.3,11.8-7.3,11.8-5.155,12.962,1.818,24.493,1.818,24.493l34.326,37.067,32.985,33.76s11.174,7.6,24.374,3.01c0,0,4.112-1.073,12.127-6.853l6.823-5.87A5.6,5.6,0,0,0,635.585,552.455Z" transform="translate(-519.488 -443.163)"/><g transform="translate(0 0)"><g transform="translate(9.217)"><path class="g" d="M582.164,459.731l6.615-5.661a5.631,5.631,0,0,0,.477-8.075L564.2,418.969a5.606,5.606,0,0,0-7.926-.3L549,425.405C549.03,425.405,582.134,460.893,582.164,459.731Z" transform="translate(-548.554 -416.767)"/><path class="c" d="M581.083,459.25c-.328,0-1.013-.536-4.529-4.082-2.2-2.235-5.274-5.423-9.177-9.475-6.913-7.241-14.66-15.524-17.967-19.04-.983-1.043-1.669-1.788-1.758-1.877a.3.3,0,0,1-.119-.149.412.412,0,0,1,.119-.477l7.27-6.734a6.066,6.066,0,0,1,8.552.328l25.059,27.026a5.994,5.994,0,0,1,1.579,4.5,5.893,5.893,0,0,1-2.116,4.2l-6.555,5.6a.534.534,0,0,1-.209.149A.223.223,0,0,1,581.083,459.25Zm.03-.447Zm-32.538-34.326c.3.3.745.775,1.49,1.579,23,24.523,29.648,31.2,30.989,32.21l6.406-5.483a5.024,5.024,0,0,0,1.788-3.576,5.175,5.175,0,0,0-1.341-3.844L562.848,418.34a5.174,5.174,0,0,0-7.3-.268Z" transform="translate(-547.503 -415.81)"/></g><g transform="translate(74.888 68.555)"><path class="g" d="M801.766,690.107l6.674-5.6a5.61,5.61,0,0,0,.536-8.075L784.156,649.2a5.607,5.607,0,0,0-7.926-.358l-7.33,6.674C768.93,655.483,801.706,691.269,801.766,690.107Z" transform="translate(-768.602 -646.927)"/><path class="c" d="M801.064,689.542c-.477,0-1.818-1.132-12.574-12.574-6.406-6.823-13.736-14.779-17.7-19.04-1.639-1.758-2.8-3.039-2.89-3.129l.328-.328-.3-.328,7.33-6.674a6.049,6.049,0,0,1,8.552.387l24.821,27.234a6.025,6.025,0,0,1-.566,8.7l-6.615,5.542a.534.534,0,0,1-.209.149A.252.252,0,0,1,801.064,689.542Zm0-.447ZM768.824,654.5c.119.119.268.3.477.507.507.536,1.222,1.341,2.145,2.324,6.764,7.33,26.966,29.23,29.529,31.227l6.466-5.423a5.157,5.157,0,0,0,.477-7.419l-24.791-27.264a5.174,5.174,0,0,0-7.3-.328Z" transform="translate(-767.9 -645.885)"/></g><g transform="translate(0 8.31)"><path class="d" d="M592.629,513.375l-7.181,6.049-17.431-17.4-14.124-15.494,6.287-6.883L527.226,445.2c-6.049,7.717-7.3,11.8-7.3,11.8-5.155,12.962,1.818,24.493,1.818,24.493l34.326,37.037,32.985,33.76s11.174,7.6,24.374,3.009c0,0,4.112-1.073,12.127-6.853Z" transform="translate(-517.592 -444.753)"/><path class="c" d="M603.734,556.153a31.185,31.185,0,0,1-15.941-4.559c-.03-.03-.06-.03-.06-.06l-33.015-33.76-34.326-37.037c-.03-.03-.03-.06-.06-.06-.06-.119-7.032-11.859-1.847-24.88.119-.358,1.49-4.41,7.36-11.919a.518.518,0,0,1,.328-.179.434.434,0,0,1,.358.149l32.955,34.445a.422.422,0,0,1,0,.6l-6.019,6.585,13.855,15.2,17.133,17.1,6.853-5.781a.461.461,0,0,1,.626.03l32.925,35.071a.475.475,0,0,1,.119.358.518.518,0,0,1-.179.328c-7.807,5.632-11.919,6.823-12.246,6.913A27.58,27.58,0,0,1,603.734,556.153Zm-15.4-5.274c.685.447,11.472,7.27,23.927,2.92h.03c.03,0,3.993-1.1,11.561-6.5l-32.27-34.356-6.853,5.781a.422.422,0,0,1-.6-.03l-17.461-17.4-14.124-15.524a.453.453,0,0,1,0-.6l6.019-6.585-32.329-33.76c-5.632,7.27-6.883,11.2-6.913,11.263v.03c-4.857,12.246,1.341,23.331,1.758,24.046l34.3,37.008Z" transform="translate(-516.569 -443.7)"/></g></g></g><g transform="translate(44.804 137.489)"><path class="h" d="M533.583,844.162,513.53,765.231a7.755,7.755,0,0,0-4.41-5.185L437.757,728.73a13.953,13.953,0,0,0-16.835,4.5L375.3,794.968a7.536,7.536,0,0,0-1.281,6.228l18.8,78.4a7.946,7.946,0,0,0,9.743,5.661l15.345-3.963L524.7,855.634C524.644,855.634,536.443,853.7,533.583,844.162Z" transform="translate(-373.819 -726.988)"/><g transform="translate(8.337 0)"><path class="d" d="M531.7,758.214l-68.771-30.035a12.87,12.87,0,0,0-15.464,4.112L403.6,791.408l28.754,55.541,99.491-26.012Z" transform="translate(-403.064 -726.676)"/><path class="h" d="M430.852,846.463,401.8,790.356,445.839,731a13.415,13.415,0,0,1,16-4.261l69.039,30.154v.3l.149,63.08-.328.089Zm-27.979-56.047,28.456,54.975,98.806-25.834-.149-62.066-68.5-29.916a12.484,12.484,0,0,0-14.928,3.963Z" transform="translate(-401.8 -725.654)"/></g><g transform="translate(20.639 2.273)"><path class="d" d="M466.807,855.483,550.059,834.3l-22.437-95.766a4.907,4.907,0,0,0-5.81-3.695L449.2,750.48a5.8,5.8,0,0,0-4.44,6.943Z" transform="translate(-444.158 -734.295)"/><path class="h" d="M465.735,854.917a.7.7,0,0,1-.238-.06.6.6,0,0,1-.209-.268l-22.05-98.061a6.235,6.235,0,0,1,4.767-7.479l72.614-15.643a5.351,5.351,0,0,1,6.347,4.023L549.4,833.2a.444.444,0,0,1-.328.536l-83.252,21.185Zm56.048-120.766a5.165,5.165,0,0,0-.953.089l-72.614,15.643a5.4,5.4,0,0,0-4.112,6.406l21.96,97.614,82.388-20.977L526.1,737.578A4.453,4.453,0,0,0,521.783,734.151Z" transform="translate(-443.086 -733.281)"/></g><g transform="translate(8.419 31.084)"><path class="d" d="M552.345,914.007,428.57,945.145a5.37,5.37,0,0,1-6.555-3.933L403.6,864.694l76.518,34.028L531.7,831.5Z" transform="translate(-403.145 -831.046)"/><path class="h" d="M426.158,944.7a5.636,5.636,0,0,1-2.98-.834,5.871,5.871,0,0,1-2.682-3.605l-18.414-76.518a.492.492,0,0,1,.149-.447.45.45,0,0,1,.477-.06l76.19,33.879,51.369-66.953a.454.454,0,0,1,.8.149l20.649,82.507a.444.444,0,0,1-.328.536L427.618,944.491A5.081,5.081,0,0,1,426.158,944.7Zm-22.973-80.3,18.206,75.624a5.031,5.031,0,0,0,2.265,3.069,4.874,4.874,0,0,0,3.754.536l123.358-31.018-20.321-81.166L479.4,897.919a.517.517,0,0,1-.536.149Z" transform="translate(-402.075 -829.975)"/></g><g transform="translate(37.449 71.656)"><path class="d" d="M613.918,1011.79,550.66,969.3a9.742,9.742,0,0,0-14.094,3.635L502.3,1039.471Z" transform="translate(-501.466 -967.195)"/><path class="h" d="M499.5,1039.1l34.713-67.43a10.164,10.164,0,0,1,14.72-3.814l64.093,43.056Zm43.771-72.048a8.885,8.885,0,0,0-2.324.3,9.207,9.207,0,0,0-5.93,4.738L501.2,1037.757l109.681-27.2L548.456,968.6A9.515,9.515,0,0,0,543.271,967.049Z" transform="translate(-499.5 -966.136)"/></g></g><rect class="h" width="60.994" height="1.281" transform="translate(82.239 174.542) rotate(-13.279)"/><rect class="h" width="60.994" height="1.281" transform="translate(87.185 187.206) rotate(-13.279)"/><rect class="h" width="24.374" height="1.281" transform="translate(108.858 196.58) rotate(-13.804)"/></g></svg>
